<svg width="20" height="20" viewBox="0 0 20 20" fill="none" xmlns="http://www.w3.org/2000/svg">
<path d="M10.3901 3.5493C10.1197 3.81587 10.0944 4.2371 10.316 4.53265L10.3826 4.60993L14.9583 9.25004L3.25 9.25004C2.83579 9.25004 2.5 9.58583 2.5 10C2.5 10.3824 2.78611 10.6979 3.15592 10.7442L3.25 10.75H14.9583L10.3826 15.3902C10.116 15.6605 10.0966 16.0821 10.3224 16.3745L10.3901 16.4508C10.6605 16.7174 11.082 16.7367 11.3744 16.5109L11.4507 16.4433L17.2841 10.5266C17.548 10.2589 17.57 9.84245 17.3501 9.54997L17.2841 9.47348L11.4507 3.55682C11.1599 3.26186 10.6851 3.25849 10.3901 3.5493Z" fill="white"/>
</svg>
