<svg width="286" height="56" viewBox="0 0 286 56" fill="none" xmlns="http://www.w3.org/2000/svg">
<g clip-path="url(#clip0_99_1074)">
<path d="M0.614624 56H28.263L0.614624 28V56ZM55.9127 56V28L28.2643 56H55.9127ZM28.263 0L55.9127 28V0H28.2643H28.263ZM0.614624 0V28L28.263 0H0.614624Z" fill="white"/>
<path d="M81.0254 13.3086V17.9853H86.7504L76.9921 42.0327H84.147L86.2946 36.1032H98.4596L100.672 42.0327H108.024L96.3785 13.3099H81.0241L81.0254 13.3086ZM88.2468 30.8991L92.3452 19.8971L96.5087 30.8991H88.2468ZM125.784 23.8483C124.807 22.2009 122.596 20.4232 119.147 20.4232C113.748 20.4232 109.519 24.3094 109.519 31.0958C109.519 37.7507 113.748 41.6368 119.147 41.6368C122.4 41.6368 124.483 40.0558 125.523 38.5399V40.4517C125.523 44.3378 122.465 45.6558 119.342 45.6558C116.35 45.6558 113.813 44.7988 111.471 43.2178V48.4232C113.617 49.7399 116.48 50.5304 120.383 50.5304C126.954 50.5304 131.963 47.1704 131.963 40.5832V20.9493H125.784V23.8483ZM120.904 36.6958C117.976 36.6958 116.025 34.4558 116.025 31.0958C115.96 27.6042 117.976 25.4958 120.904 25.4958C122.661 25.4958 124.287 26.0883 125.588 27.3399V34.9168C124.286 36.0368 122.661 36.6958 120.904 36.6958ZM146.278 25.6273L145.302 20.8842H135.608V25.2991H139.902V41.9663H146.409V29.055C147.319 27.5391 149.141 26.354 152.458 26.354C153.435 26.354 154.41 26.4855 154.996 26.6835V20.8191C154.605 20.6225 153.889 20.4896 153.174 20.4896C149.076 20.4896 146.798 22.994 146.278 25.6286V25.6273ZM168.721 20.4232C162.02 20.4232 157.011 24.8381 157.011 31.4904C157.011 38.1453 161.954 42.4937 168.721 42.4937C175.357 42.4937 180.365 38.144 180.365 31.4917C180.365 24.8368 175.357 20.4219 168.721 20.4219V20.4232ZM168.721 37.3534C165.598 37.3534 163.516 34.9181 163.516 31.4904C163.516 28.0001 165.598 25.5622 168.721 25.5622C171.778 25.5622 173.86 27.9988 173.86 31.4904C173.86 34.9168 171.778 37.3547 168.721 37.3547V37.3534ZM196.306 20.4219C193.248 20.4219 191.231 21.8727 190.125 23.3873V12.3853H183.619V42.0327H189.799V39.1988C190.84 40.8463 192.988 42.5588 196.306 42.5588C201.705 42.5588 205.934 38.4747 205.934 31.5568C205.934 24.5073 201.705 20.4219 196.306 20.4219ZM194.614 37.3547C192.922 37.3547 191.361 36.7609 190.125 35.5758V27.3399C191.361 26.1547 192.922 25.5609 194.614 25.5609C197.607 25.5609 199.493 27.8673 199.493 31.4904C199.428 35.0483 197.542 37.3547 194.614 37.3547ZM229.549 36.6958V28.6578C229.549 23.5853 225.711 20.4232 219.466 20.4232C215.627 20.4232 212.83 21.2788 210.749 22.5304V27.6693C212.975 26.0946 215.632 25.2438 218.359 25.2327C221.222 25.2327 223.304 26.3527 223.304 29.1853V29.7127C222.134 29.3832 220.442 29.1188 218.685 29.1188C213.611 29.1188 208.992 31.1609 208.992 35.8388C208.992 39.6599 212.375 42.4286 216.863 42.4286C220.442 42.4286 222.329 41.1758 223.5 39.6599C224.15 41.5717 226.232 42.4273 228.248 42.4273C230.33 42.4273 231.371 41.9663 232.087 41.6368V37.8158C231.827 37.8809 231.371 37.9473 231.045 37.9473C230.265 38.0788 229.549 37.6842 229.549 36.6958ZM218.88 38.0788C216.798 38.0788 215.432 37.0904 215.432 35.6409C215.432 33.7317 217.579 33.0727 219.532 33.0727C220.963 33.0727 222.199 33.2694 223.239 33.5988V36.1032C222.134 37.3534 220.767 38.0788 218.88 38.0788ZM250.042 20.4232C246.464 20.4232 244.057 22.2673 242.821 23.9799L242.17 20.8842H232.477V25.2991H236.77V41.9663H243.277V27.3412C244.187 26.3514 245.684 25.7588 247.31 25.7588C249.912 25.7588 251.409 27.0768 251.409 29.8442V42.0327H257.914V27.9988C257.979 23.0578 254.597 20.4232 250.042 20.4232ZM285.759 41.9663V37.6178H282.766L277.822 30.3704L284.393 20.9493H277.887L272.617 28.5927H269.754V12.3853H263.249V42.0327H269.754V33.2694H272.682L278.407 42.0327H285.824L285.759 41.9663Z" fill="white"/>
</g>
<defs>
<clipPath id="clip0_99_1074">
<rect width="285.209" height="56" fill="white" transform="translate(0.614624)"/>
</clipPath>
</defs>
</svg>
