<svg width="136" height="24" viewBox="0 0 136 24" fill="none" xmlns="http://www.w3.org/2000/svg">
<path d="M0.862 23V0.599998H5.086V23H0.862ZM10.2995 23V0.599998H18.3315L22.7795 20.12H23.3555V0.599998H27.5155V23H19.4835L15.0355 3.48H14.4595V23H10.2995ZM37.921 23V4.44H31.393V0.599998H48.673V4.44H42.145V23H37.921ZM60.3473 23.448C57.5313 23.448 55.2913 22.68 53.6273 21.144C51.9633 19.5867 51.1313 17.368 51.1313 14.488V9.112C51.1313 6.232 51.9633 4.024 53.6273 2.488C55.2913 0.930665 57.5313 0.151999 60.3473 0.151999C63.1633 0.151999 65.4033 0.930665 67.0673 2.488C68.7313 4.024 69.5633 6.232 69.5633 9.112V14.488C69.5633 17.368 68.7313 19.5867 67.0673 21.144C65.4033 22.68 63.1633 23.448 60.3473 23.448ZM60.3473 19.672C61.9259 19.672 63.1526 19.2133 64.0273 18.296C64.9019 17.3787 65.3393 16.152 65.3393 14.616V8.984C65.3393 7.448 64.9019 6.22133 64.0273 5.304C63.1526 4.38667 61.9259 3.928 60.3473 3.928C58.7899 3.928 57.5633 4.38667 56.6673 5.304C55.7926 6.22133 55.3553 7.448 55.3553 8.984V14.616C55.3553 16.152 55.7926 17.3787 56.6673 18.296C57.5633 19.2133 58.7899 19.672 60.3473 19.672ZM82.9083 23.448C81.0736 23.448 79.4949 23.1173 78.1723 22.456C76.8709 21.7733 75.8683 20.8133 75.1643 19.576C74.4816 18.3173 74.1403 16.8347 74.1403 15.128V0.599998H78.3643V15.256C78.3643 16.6213 78.7483 17.6987 79.5163 18.488C80.3056 19.2773 81.4363 19.672 82.9083 19.672C84.3803 19.672 85.5003 19.2773 86.2683 18.488C87.0576 17.6987 87.4523 16.6213 87.4523 15.256V0.599998H91.6763V15.128C91.6763 16.8347 91.3243 18.3173 90.6203 19.576C89.9376 20.8133 88.9349 21.7733 87.6123 22.456C86.3109 23.1173 84.7429 23.448 82.9083 23.448ZM105.28 23.448C102.507 23.448 100.31 22.68 98.6883 21.144C97.0669 19.5867 96.2563 17.368 96.2563 14.488V9.112C96.2563 6.232 97.0669 4.024 98.6883 2.488C100.31 0.930665 102.507 0.151999 105.28 0.151999C108.032 0.151999 110.155 0.909332 111.648 2.424C113.163 3.91733 113.92 5.976 113.92 8.6V8.792H109.76V8.472C109.76 7.14933 109.387 6.06133 108.64 5.208C107.915 4.35467 106.795 3.928 105.28 3.928C103.787 3.928 102.614 4.38667 101.76 5.304C100.907 6.22133 100.48 7.46933 100.48 9.048V14.552C100.48 16.1093 100.907 17.3573 101.76 18.296C102.614 19.2133 103.787 19.672 105.28 19.672C106.795 19.672 107.915 19.2453 108.64 18.392C109.387 17.5173 109.76 16.4293 109.76 15.128V14.552H113.92V15C113.92 17.624 113.163 19.6933 111.648 21.208C110.155 22.7013 108.032 23.448 105.28 23.448ZM118.362 23V0.599998H122.586V9.848H130.906V0.599998H135.13V23H130.906V13.688H122.586V23H118.362Z" fill="white"/>
</svg>
