<svg width="150" height="27" viewBox="0 0 150 27" fill="none" xmlns="http://www.w3.org/2000/svg">
<g clip-path="url(#clip0_99_1009)">
<path d="M14.3993 25.7576C20.9298 25.7576 26.2238 20.4636 26.2238 13.9331C26.2238 7.40265 20.9298 2.10864 14.3993 2.10864C7.86877 2.10864 2.57477 7.40265 2.57477 13.9331C2.57477 20.4636 7.86877 25.7576 14.3993 25.7576Z" fill="url(#paint0_linear_99_1009)"/>
<path d="M1.98231 25.6763C3.07709 26.7711 9.37306 22.2501 16.0448 15.5784C22.7165 8.90672 27.2375 2.61074 26.1427 1.51596C25.0479 0.421185 18.7519 4.94217 12.0802 11.6139C5.40852 18.2856 0.887532 24.5815 1.98231 25.6763Z" fill="url(#paint1_linear_99_1009)"/>
<path d="M45.1125 16.9486H44.2856L49.1681 9.32297H50.9137V17.8148H49.1681V11.6461L49.5881 11.7642L45.69 17.8148H43.7344L39.8362 11.7905L40.2562 11.6723V17.8148H38.5106V9.32297H40.2562L45.1125 16.9486ZM54.6758 14.2711V16.358H61.2252V17.8148H52.9302V9.32297H61.2121V10.7798H54.6758V12.893H60.0308V14.2711H54.6758ZM63.0174 17.8148V9.32297H68.7793C69.4355 9.32297 70.0043 9.41484 70.4855 9.59859C70.9756 9.7736 71.3562 10.0536 71.6274 10.4386C71.8987 10.8148 72.0343 11.3004 72.0343 11.8955C72.0343 12.2979 71.9643 12.6392 71.8243 12.9192C71.6843 13.1992 71.4874 13.4267 71.2337 13.6017C70.9887 13.7767 70.7043 13.9123 70.3805 14.0086C70.0568 14.0961 69.7112 14.153 69.3437 14.1792L69.1599 14.0742C69.7725 14.0829 70.2755 14.1354 70.6693 14.2317C71.063 14.3192 71.3562 14.4855 71.5487 14.7305C71.7499 14.9667 71.8505 15.3211 71.8505 15.7936V17.8148H70.1049V15.9117C70.1049 15.588 70.0481 15.3386 69.9343 15.1636C69.8206 14.9798 69.615 14.853 69.3174 14.783C69.0287 14.7129 68.6087 14.678 68.0574 14.678H64.763V17.8148H63.0174ZM64.763 13.313H68.7793C69.2693 13.313 69.6412 13.1948 69.8949 12.9586C70.1574 12.7223 70.2887 12.4029 70.2887 12.0005C70.2887 11.6154 70.1574 11.3224 69.8949 11.1211C69.6412 10.9198 69.2693 10.8192 68.7793 10.8192H64.763V13.313ZM83.7703 14.7567C83.6915 15.4392 83.451 16.0211 83.0484 16.5023C82.6459 16.9835 82.0991 17.351 81.4078 17.6048C80.7166 17.8586 79.8941 17.9855 78.9403 17.9855C78.1441 17.9855 77.4135 17.8936 76.7484 17.7098C76.0921 17.5261 75.5235 17.2505 75.0421 16.883C74.5696 16.5155 74.2022 16.0605 73.9397 15.518C73.6772 14.9667 73.5459 14.3236 73.5459 13.5886C73.5459 12.8536 73.6772 12.2105 73.9397 11.6592C74.2022 11.108 74.5696 10.6486 75.0421 10.2811C75.5235 9.90487 76.0921 9.62484 76.7484 9.44109C77.4135 9.2486 78.1441 9.15234 78.9403 9.15234C79.8941 9.15234 80.7166 9.28359 81.4078 9.54609C82.1078 9.80859 82.659 10.1848 83.0615 10.6748C83.4641 11.1561 83.7003 11.7424 83.7703 12.4336H82.0378C81.9241 12.0661 81.7316 11.7511 81.4603 11.4886C81.1978 11.2174 80.8565 11.0117 80.4365 10.8717C80.0165 10.7317 79.5178 10.6617 78.9403 10.6617C78.2228 10.6617 77.5928 10.7754 77.0503 11.003C76.5078 11.2217 76.0878 11.5498 75.7903 11.9873C75.4928 12.4161 75.344 12.9499 75.344 13.5886C75.344 14.2186 75.4928 14.748 75.7903 15.1767C76.0878 15.6054 76.5078 15.9335 77.0503 16.1611C77.5928 16.3798 78.2228 16.4892 78.9403 16.4892C79.5178 16.4892 80.0122 16.4192 80.4234 16.2792C80.8434 16.1392 81.1846 15.938 81.4471 15.6755C81.7185 15.413 81.9153 15.1067 82.0378 14.7567H83.7703ZM93.2698 14.0611V9.32297H95.0156V14.2448C95.0156 14.8048 94.9321 15.2948 94.7662 15.7148C94.6087 16.1348 94.3809 16.4892 94.0837 16.778C93.7856 17.0667 93.436 17.303 93.0335 17.4867C92.6398 17.6617 92.2066 17.7886 91.7341 17.8673C91.2704 17.9461 90.7803 17.9855 90.2641 17.9855C89.7303 17.9855 89.2229 17.9461 88.7416 17.8673C88.2603 17.7886 87.8185 17.6617 87.416 17.4867C87.0223 17.303 86.681 17.0667 86.3922 16.778C86.1035 16.4892 85.876 16.1348 85.7098 15.7148C85.5523 15.2948 85.4735 14.8048 85.4735 14.2448V9.32297H87.2191V14.0611C87.2191 14.7261 87.3504 15.2336 87.6129 15.5836C87.8754 15.9248 88.2341 16.1611 88.6891 16.2923C89.1528 16.4149 89.6778 16.4761 90.2641 16.4761C90.8328 16.4761 91.3404 16.4149 91.7866 16.2923C92.2416 16.1611 92.6004 15.9248 92.8629 15.5836C93.1341 15.2336 93.2698 14.7261 93.2698 14.0611ZM97.0349 17.8148V9.32297H102.797C103.453 9.32297 104.021 9.41484 104.503 9.59859C104.992 9.7736 105.373 10.0536 105.645 10.4386C105.916 10.8148 106.052 11.3004 106.052 11.8955C106.052 12.2979 105.982 12.6392 105.842 12.9192C105.701 13.1992 105.504 13.4267 105.251 13.6017C105.006 13.7767 104.721 13.9123 104.398 14.0086C104.074 14.0961 103.729 14.153 103.361 14.1792L103.177 14.0742C103.79 14.0829 104.293 14.1354 104.687 14.2317C105.081 14.3192 105.373 14.4855 105.566 14.7305C105.767 14.9667 105.868 15.3211 105.868 15.7936V17.8148H104.122V15.9117C104.122 15.588 104.065 15.3386 103.952 15.1636C103.837 14.9798 103.632 14.853 103.335 14.783C103.046 14.7129 102.626 14.678 102.075 14.678H98.7806V17.8148H97.0349ZM98.7806 13.313H102.797C103.286 13.313 103.658 13.1948 103.912 12.9586C104.175 12.7223 104.306 12.4029 104.306 12.0005C104.306 11.6154 104.175 11.3224 103.912 11.1211C103.658 10.9198 103.286 10.8192 102.797 10.8192H98.7806V13.313ZM116.164 9.32297L112.436 15.1373V17.8148H110.677V15.1373L106.95 9.32297H108.971L112.108 14.4023H111.058L114.142 9.32297H116.164ZM122.339 9.32297V16.358H127.983V17.8148H120.593V9.32297H122.339ZM130.929 15.9642V14.5073H136.547V15.9642H130.929ZM128.816 17.8148L132.806 9.32297H134.696L138.726 17.8148H136.822L133.331 10.163H134.171L130.706 17.8148H128.816ZM139.96 17.8148V9.32297H144.856C145.993 9.32297 146.856 9.51546 147.441 9.90047C148.037 10.2767 148.334 10.8411 148.334 11.5936C148.334 12.0748 148.216 12.4554 147.98 12.7355C147.743 13.0067 147.407 13.208 146.969 13.3392C146.541 13.4705 146.032 13.5536 145.446 13.5886L145.499 13.4967C145.927 13.5054 146.331 13.5361 146.706 13.5886C147.092 13.6411 147.428 13.7374 147.717 13.8773C148.006 14.0173 148.234 14.2142 148.4 14.468C148.566 14.7129 148.649 15.0367 148.649 15.4392C148.649 15.9642 148.509 16.4017 148.229 16.7517C147.949 17.093 147.56 17.351 147.061 17.5261C146.562 17.7011 145.985 17.7973 145.328 17.8148H139.96ZM141.706 16.3711H145.145C145.696 16.3711 146.121 16.2836 146.418 16.1086C146.715 15.9248 146.864 15.6361 146.864 15.2423C146.864 14.9536 146.777 14.7436 146.601 14.6123C146.426 14.4811 146.195 14.4023 145.906 14.3761C145.617 14.3411 145.307 14.3236 144.974 14.3236H141.706V16.3711ZM141.706 12.9192H144.79C145.341 12.9192 145.766 12.8405 146.063 12.683C146.361 12.5167 146.51 12.2367 146.51 11.843C146.51 11.4492 146.361 11.1736 146.063 11.0161C145.766 10.8499 145.372 10.7667 144.882 10.7667H141.706V12.9192Z" fill="white"/>
</g>
<defs>
<linearGradient id="paint0_linear_99_1009" x1="26.6179" y1="-0.650323" x2="-4.51983" y2="31.6699" gradientUnits="userSpaceOnUse">
<stop stop-color="#DF972C"/>
<stop offset="1" stop-color="white" stop-opacity="0.58"/>
</linearGradient>
<linearGradient id="paint1_linear_99_1009" x1="31.0098" y1="0.745546" x2="18.6766" y2="-7.99779" gradientUnits="userSpaceOnUse">
<stop stop-color="white"/>
<stop offset="1" stop-color="white" stop-opacity="0.58"/>
</linearGradient>
<clipPath id="clip0_99_1009">
<rect width="150" height="26.25" fill="white" transform="translate(0 0.471191)"/>
</clipPath>
</defs>
</svg>
