<svg width="150" height="27" viewBox="0 0 150 27" fill="none" xmlns="http://www.w3.org/2000/svg">
<g clip-path="url(#clip0_2_957)">
<path d="M14.3992 25.2862C20.9297 25.2862 26.2237 19.9922 26.2237 13.4617C26.2237 6.93121 20.9297 1.63721 14.3992 1.63721C7.86871 1.63721 2.57471 6.93121 2.57471 13.4617C2.57471 19.9922 7.86871 25.2862 14.3992 25.2862Z" fill="url(#paint0_linear_2_957)"/>
<path d="M1.98231 25.2051C3.07709 26.2999 9.37306 21.7789 16.0448 15.1072C22.7165 8.43553 27.2375 2.13955 26.1427 1.04477C25.0479 -0.0500066 18.7519 4.47098 12.0802 11.1427C5.40852 17.8144 0.887532 24.1104 1.98231 25.2051Z" fill="url(#paint1_linear_2_957)"/>
<path d="M45.1124 16.4774H44.2855L49.168 8.85178H50.9136V17.3436H49.168V11.1749L49.588 11.293L45.6899 17.3436H43.7342L39.8361 11.3193L40.2561 11.2011V17.3436H38.5105V8.85178H40.2561L45.1124 16.4774ZM54.6757 13.7999V15.8868H61.2251V17.3436H52.9301V8.85178H61.2119V10.3086H54.6757V12.4218H60.0307V13.7999H54.6757ZM63.0173 17.3436V8.85178H68.7792C69.4354 8.85178 70.0042 8.94365 70.4854 9.1274C70.9754 9.3024 71.3561 9.58237 71.6273 9.9674C71.8986 10.3436 72.0342 10.8292 72.0342 11.4243C72.0342 11.8267 71.9642 12.168 71.8242 12.448C71.6842 12.7281 71.4873 12.9555 71.2335 13.1305C70.9886 13.3055 70.7042 13.4411 70.3804 13.5374C70.0567 13.6249 69.711 13.6818 69.3435 13.708L69.1598 13.603C69.7723 13.6117 70.2754 13.6642 70.6692 13.7605C71.0629 13.848 71.3561 14.0143 71.5485 14.2593C71.7498 14.4955 71.8504 14.8499 71.8504 15.3224V17.3436H70.1048V15.4405C70.1048 15.1168 70.048 14.8674 69.9342 14.6924C69.8204 14.5086 69.6148 14.3818 69.3173 14.3118C69.0285 14.2417 68.6085 14.2068 68.0573 14.2068H64.7629V17.3436H63.0173ZM64.7629 12.8418H68.7792C69.2692 12.8418 69.6411 12.7236 69.8948 12.4874C70.1573 12.2511 70.2885 11.9317 70.2885 11.5293C70.2885 11.1442 70.1573 10.8512 69.8948 10.6499C69.6411 10.4486 69.2692 10.348 68.7792 10.348H64.7629V12.8418ZM83.7701 14.2855C83.6914 14.968 83.4508 15.5499 83.0483 16.0311C82.6458 16.5124 82.099 16.8799 81.4076 17.1336C80.7164 17.3874 79.894 17.5143 78.9402 17.5143C78.1439 17.5143 77.4133 17.4224 76.7483 17.2386C76.092 17.0549 75.5233 16.7793 75.042 16.4118C74.5695 16.0443 74.202 15.5893 73.9395 15.0468C73.677 14.4955 73.5458 13.8524 73.5458 13.1174C73.5458 12.3824 73.677 11.7393 73.9395 11.188C74.202 10.6368 74.5695 10.1774 75.042 9.8099C75.5233 9.43368 76.092 9.15365 76.7483 8.9699C77.4133 8.7774 78.1439 8.68115 78.9402 8.68115C79.894 8.68115 80.7164 8.8124 81.4076 9.0749C82.1077 9.3374 82.6589 9.71362 83.0614 10.2036C83.464 10.6849 83.7002 11.2712 83.7701 11.9624H82.0377C81.9239 11.5949 81.7315 11.2799 81.4601 11.0174C81.1976 10.7462 80.8564 10.5405 80.4364 10.4005C80.0164 10.2606 79.5177 10.1905 78.9402 10.1905C78.2227 10.1905 77.5927 10.3042 77.0501 10.5318C76.5077 10.7505 76.0877 11.0786 75.7902 11.5161C75.4927 11.9449 75.3439 12.4787 75.3439 13.1174C75.3439 13.7474 75.4927 14.2768 75.7902 14.7055C76.0877 15.1342 76.5077 15.4624 77.0501 15.6899C77.5927 15.9086 78.2227 16.018 78.9402 16.018C79.5177 16.018 80.0121 15.948 80.4233 15.808C80.8433 15.668 81.1845 15.4668 81.447 15.2043C81.7183 14.9418 81.9152 14.6355 82.0377 14.2855H83.7701ZM93.2696 13.5899V8.85178H95.0154V13.7736C95.0154 14.3336 94.932 14.8236 94.7661 15.2436C94.6086 15.6636 94.3808 16.018 94.0836 16.3068C93.7855 16.5955 93.4359 16.8318 93.0334 17.0155C92.6396 17.1905 92.2065 17.3174 91.734 17.3961C91.2702 17.4749 90.7802 17.5143 90.264 17.5143C89.7302 17.5143 89.2227 17.4749 88.7415 17.3961C88.2602 17.3174 87.8184 17.1905 87.4159 17.0155C87.0221 16.8318 86.6809 16.5955 86.3921 16.3068C86.1034 16.018 85.8759 15.6636 85.7096 15.2436C85.5521 14.8236 85.4734 14.3336 85.4734 13.7736V8.85178H87.219V13.5899C87.219 14.2549 87.3503 14.7624 87.6128 15.1124C87.8753 15.4536 88.234 15.6899 88.689 15.8211C89.1527 15.9437 89.6777 16.0049 90.264 16.0049C90.8327 16.0049 91.3403 15.9437 91.7865 15.8211C92.2415 15.6899 92.6003 15.4536 92.8628 15.1124C93.134 14.7624 93.2696 14.2549 93.2696 13.5899ZM97.0348 17.3436V8.85178H102.797C103.453 8.85178 104.021 8.94365 104.503 9.1274C104.992 9.3024 105.373 9.58237 105.645 9.9674C105.916 10.3436 106.052 10.8292 106.052 11.4243C106.052 11.8267 105.981 12.168 105.842 12.448C105.701 12.7281 105.504 12.9555 105.251 13.1305C105.005 13.3055 104.721 13.4411 104.398 13.5374C104.074 13.6249 103.729 13.6818 103.361 13.708L103.177 13.603C103.789 13.6117 104.293 13.6642 104.687 13.7605C105.08 13.848 105.373 14.0143 105.566 14.2593C105.767 14.4955 105.868 14.8499 105.868 15.3224V17.3436H104.122V15.4405C104.122 15.1168 104.065 14.8674 103.952 14.6924C103.837 14.5086 103.632 14.3818 103.335 14.3118C103.046 14.2417 102.626 14.2068 102.075 14.2068H98.7804V17.3436H97.0348ZM98.7804 12.8418H102.797C103.286 12.8418 103.658 12.7236 103.912 12.4874C104.175 12.2511 104.306 11.9317 104.306 11.5293C104.306 11.1442 104.175 10.8512 103.912 10.6499C103.658 10.4486 103.286 10.348 102.797 10.348H98.7804V12.8418ZM116.164 8.85178L112.436 14.6661V17.3436H110.677V14.6661L106.95 8.85178H108.971L112.108 13.9311H111.058L114.142 8.85178H116.164ZM122.339 8.85178V15.8868H127.983V17.3436H120.593V8.85178H122.339ZM130.929 15.493V14.0361H136.547V15.493H130.929ZM128.816 17.3436L132.806 8.85178H134.696L138.725 17.3436H136.822L133.331 9.69178H134.171L130.706 17.3436H128.816ZM139.96 17.3436V8.85178H144.856C145.993 8.85178 146.855 9.04427 147.441 9.42928C148.037 9.80549 148.334 10.3699 148.334 11.1224C148.334 11.6036 148.216 11.9842 147.979 12.2643C147.743 12.5355 147.407 12.7368 146.969 12.868C146.54 12.9993 146.032 13.0824 145.446 13.1174L145.499 13.0255C145.927 13.0342 146.33 13.0649 146.706 13.1174C147.092 13.1699 147.428 13.2662 147.717 13.4061C148.006 13.5461 148.234 13.743 148.399 13.9968C148.565 14.2417 148.649 14.5655 148.649 14.968C148.649 15.493 148.509 15.9305 148.229 16.2805C147.949 16.6218 147.559 16.8799 147.061 17.0549C146.562 17.2299 145.984 17.3261 145.328 17.3436H139.96ZM141.706 15.8999H145.144C145.696 15.8999 146.12 15.8124 146.418 15.6374C146.715 15.4536 146.864 15.1649 146.864 14.7711C146.864 14.4824 146.777 14.2724 146.601 14.1411C146.426 14.0099 146.194 13.9311 145.906 13.9049C145.617 13.8699 145.307 13.8524 144.974 13.8524H141.706V15.8999ZM141.706 12.448H144.79C145.341 12.448 145.766 12.3693 146.063 12.2118C146.36 12.0456 146.509 11.7655 146.509 11.3718C146.509 10.978 146.36 10.7024 146.063 10.5449C145.766 10.3787 145.372 10.2955 144.882 10.2955H141.706V12.448Z" fill="white"/>
</g>
<defs>
<linearGradient id="paint0_linear_2_957" x1="26.6178" y1="-1.12176" x2="-4.51989" y2="31.1984" gradientUnits="userSpaceOnUse">
<stop stop-color="#DF972C"/>
<stop offset="1" stop-color="white" stop-opacity="0.58"/>
</linearGradient>
<linearGradient id="paint1_linear_2_957" x1="31.0098" y1="0.274355" x2="18.6766" y2="-8.46898" gradientUnits="userSpaceOnUse">
<stop stop-color="white"/>
<stop offset="1" stop-color="white" stop-opacity="0.58"/>
</linearGradient>
<clipPath id="clip0_2_957">
<rect width="150" height="26.25" fill="white"/>
</clipPath>
</defs>
</svg>
