<svg width="25" height="25" viewBox="0 0 25 25" fill="none" xmlns="http://www.w3.org/2000/svg">
<path d="M22.2175 12.1477C22.2175 17.6707 17.7405 22.1477 12.2175 22.1477C6.69454 22.1477 2.21754 17.6707 2.21754 12.1477C2.21754 6.6247 6.69454 2.14771 12.2175 2.14771C17.7405 2.14771 22.2175 6.6247 22.2175 12.1477ZM12.5755 9.5297C11.6035 9.93437 9.65988 10.772 6.74454 12.0427C6.27054 12.2307 6.02254 12.4147 6.00054 12.5947C5.96254 12.8987 6.34354 13.0187 6.86254 13.1817L7.08054 13.2517C7.59054 13.4177 8.27854 13.6117 8.63554 13.6197C8.95954 13.6264 9.32088 13.493 9.71954 13.2197C12.4435 11.3797 13.8495 10.45 13.9375 10.4307C14.0005 10.4167 14.0865 10.3987 14.1445 10.4507C14.2035 10.5027 14.1975 10.6007 14.1915 10.6277C14.1535 10.7887 12.6575 12.1797 11.8835 12.8987C11.6542 13.1147 11.4265 13.3324 11.2005 13.5517C10.7265 14.0087 10.3705 14.3517 11.2205 14.9117C12.0815 15.4797 12.9505 16.0457 13.7905 16.6447C14.2045 16.9407 14.5765 17.2047 15.0365 17.1637C15.3035 17.1387 15.5795 16.8877 15.7195 16.1377C16.0515 14.3677 16.7025 10.5297 16.8525 8.9477C16.8613 8.81648 16.8555 8.68469 16.8355 8.5547C16.8237 8.45009 16.773 8.35373 16.6935 8.2847C16.5735 8.1867 16.3885 8.1667 16.3065 8.1677C15.9305 8.17471 15.3535 8.3747 12.5765 9.5297" fill="#C6C6C6"/>
</svg>
