<svg width="267" height="56" viewBox="0 0 267 56" fill="none" xmlns="http://www.w3.org/2000/svg">
<g clip-path="url(#clip0_99_1049)">
<path fill-rule="evenodd" clip-rule="evenodd" d="M0.946716 19.6105C0.94442 17.0375 1.44893 14.4892 2.43145 12.1112C3.41397 9.73322 4.85526 7.57202 6.67301 5.75102C8.49077 3.93001 10.6494 2.48488 13.0257 1.49812C15.4019 0.511354 17.9493 0.00229424 20.5222 0V7.07865C18.0422 7.08213 15.619 7.82139 13.5593 9.20284C11.4996 10.5843 9.89615 12.5458 8.95189 14.8391C8.00763 17.1323 7.76503 19.6542 8.25481 22.0854C8.74459 24.5166 9.94473 26.7478 11.7033 28.4965C13.4618 30.2453 15.6997 31.4329 18.1336 31.9091C20.5675 32.3853 23.088 32.1286 25.3759 31.1716C27.6639 30.2145 29.6164 28.6001 30.9863 26.5328C32.3562 24.4654 33.0819 22.0381 33.0716 19.5581H40.0628C40.1412 22.1814 39.6921 24.7939 38.7423 27.2405C37.7924 29.6872 36.3612 31.9183 34.5332 33.8016C32.7053 35.685 30.5179 37.1822 28.1007 38.2046C25.6835 39.2271 23.0856 39.7539 20.4611 39.7539C17.8365 39.7539 15.2387 39.2271 12.8214 38.2046C10.4042 37.1822 8.21685 35.685 6.38892 33.8016C4.56099 31.9183 3.1297 29.6872 2.17986 27.2405C1.23003 24.7939 0.780981 22.1814 0.859326 19.5581L0.946716 19.6105Z" fill="white"/>
<path d="M11.8881 19.6104C11.8881 17.882 12.4006 16.1924 13.3609 14.7552C14.3211 13.3181 15.686 12.198 17.2828 11.5366C18.8797 10.8751 20.6368 10.7021 22.332 11.0393C24.0273 11.3765 25.5844 12.2088 26.8066 13.431C28.0288 14.6531 28.8611 16.2103 29.1983 17.9055C29.5355 19.6007 29.3624 21.3579 28.701 22.9547C28.0396 24.5516 26.9194 25.9164 25.4823 26.8767C24.0452 27.837 22.3556 28.3495 20.6271 28.3495C18.3094 28.3495 16.0866 27.4288 14.4477 25.7899C12.8088 24.151 11.8881 21.9282 11.8881 19.6104Z" fill="white"/>
<path d="M26.6221 8.58184C26.6255 7.59739 26.9206 6.63603 27.4701 5.81917C28.0195 5.00231 28.7987 4.36657 29.7092 3.99222C30.6197 3.61788 31.6207 3.52173 32.5858 3.7159C33.5509 3.91007 34.4369 4.38587 35.1318 5.0832C35.8267 5.78053 36.2994 6.66814 36.4901 7.63393C36.6809 8.59972 36.5813 9.60039 36.2037 10.5096C35.8262 11.4188 35.1877 12.1957 34.369 12.7423C33.5502 13.2889 32.5878 13.5806 31.6033 13.5806C30.2806 13.576 29.0137 13.0473 28.08 12.1103C27.1463 11.1734 26.6221 9.90457 26.6221 8.58184Z" fill="white"/>
<path d="M53.521 24.5044C52.8219 27.7903 52.717 28.6117 52.2801 31.2859L52.0179 31.4782L45.3063 31.6355L45.114 31.3733C46.2676 26.829 46.5123 25.9376 47.6309 20.8864L48.0503 18.9813C48.6234 16.5892 49.0669 14.1678 49.3787 11.7278L49.6409 11.4657C52.9093 11.0462 53.6434 10.9239 56.4748 10.382L56.702 10.6442C55.7757 14.4195 55.4261 15.8876 54.1502 21.5506L53.521 24.5044ZM57.4012 6.78153L57.1215 7.09614L50.7769 7.98752L50.5322 7.70787L51.6683 2.46443L52.0179 2.18478L58.4149 1.34583L58.6421 1.62548L57.4012 6.78153Z" fill="white"/>
<path d="M66.5597 12.4444C68.0569 11.2661 69.8982 10.6094 71.8032 10.5742C75.6833 10.5742 78.2701 13.4931 78.2701 18.4219C78.2623 21.5558 77.1899 24.5941 75.2289 27.0386C71.4012 31.7228 66.4898 31.6878 62.4349 31.6878L60.5822 40.9512L60.3025 41.1435H57.6808C56.3525 41.1435 55.1989 41.1435 53.7482 41.2659L53.556 40.9862L55.8107 31.8801L56.5098 28.9263C57.2788 25.4306 58.0653 21.935 58.7645 18.5443C59.2636 16.3653 59.6371 14.1594 59.8831 11.9375L60.1452 11.6753L66.7869 10.5917L67.0141 10.8539L66.5597 12.4444ZM63.4136 27.3008C63.7222 27.3181 64.0315 27.3181 64.34 27.3008C65.8939 27.2347 67.3869 26.6779 68.6047 25.7103C69.5474 24.8077 70.2956 23.722 70.8036 22.5197C71.3115 21.3175 71.5684 20.0241 71.5585 18.719C71.5585 15.4506 69.4611 15.0661 68.6746 15.0661C67.6532 15.1489 66.6824 15.5457 65.8955 16.2022L63.4136 27.3008Z" fill="white"/>
<path d="M97.1116 29.5381C94.9332 31.2659 92.1975 32.1364 89.4212 31.985C87.0582 32.0988 84.729 31.3884 82.8319 29.975C81.9658 29.1535 81.2912 28.1514 80.8562 27.0397C80.4212 25.928 80.2365 24.7342 80.3151 23.5431C80.3151 20.0474 82.2202 10.6267 92.2876 10.6267C94.7151 10.4716 97.1153 11.2115 99.0342 12.7066C99.8876 13.5049 100.551 14.4849 100.974 15.574C101.398 16.6632 101.571 17.8336 101.481 18.9987C101.467 20.3077 101.297 21.6103 100.974 22.8789C100.451 25.4619 99.0941 27.8016 97.1116 29.5381ZM95.0142 18.1073C95.0142 16.6741 94.5423 14.6117 92.2526 14.6117C91.6359 14.6151 91.0283 14.7603 90.4767 15.0361C89.9251 15.3119 89.4443 15.7109 89.0716 16.2022C87.6544 18.6766 86.8681 21.4619 86.782 24.3121C86.7448 24.9052 86.828 25.4998 87.0267 26.0599C87.2148 26.6287 87.5862 27.119 88.0827 27.4542C88.5792 27.7894 89.1729 27.9506 89.7707 27.9126C90.3238 27.884 90.8639 27.7346 91.3531 27.4749C91.8422 27.2152 92.2686 26.8515 92.6022 26.4095C93.7176 24.9472 94.4289 23.2172 94.6646 21.3932C94.89 20.3123 95.0071 19.2115 95.0142 18.1073Z" fill="white"/>
<path d="M113.768 31.181L113.471 31.4781C112.325 31.7481 111.153 31.8946 109.975 31.9151C106.637 31.9151 104.12 30.8664 104.12 27.3708C104.333 25.0984 104.761 22.8512 105.396 20.6592L106.672 15.4157H103.963L103.736 15.1011L104.854 11.186L105.151 11.0112H107.703L108.804 6.06491L109.084 5.78526C111.985 5.12109 112.772 4.92883 115.446 4.15979L115.638 4.31709L114.782 7.53307L113.943 11.0287H117.893L118.085 11.3084C117.543 12.9513 117.386 13.3708 116.879 15.1885L116.565 15.4682H113.069L111.444 22.2672C111.108 23.4707 110.863 24.6976 110.71 25.9376C110.71 27.1785 111.706 27.5281 112.457 27.5281C113.233 27.5073 113.998 27.3413 114.712 27.0387L114.939 27.2309L113.768 31.181Z" fill="white"/>
<path d="M135.371 25.5181C135.092 26.357 134.864 27.2659 134.637 28.0699C134.41 28.8739 134.253 29.6255 134.06 30.3595L133.851 30.5868C131.805 31.6311 129.519 32.1137 127.226 31.985C121.756 31.985 120.025 29.9401 119.326 29.0836C118.065 27.4424 117.444 25.3987 117.578 23.3333C117.578 17.6355 121.074 10.5393 129.201 10.5393C130.904 10.4833 132.591 10.8751 134.095 11.6754C135.114 12.3091 135.936 13.2135 136.47 14.2876C137.004 15.3618 137.229 16.5633 137.119 17.7578C137.091 19.3061 136.868 20.8446 136.455 22.3371L136.14 22.5293C130.512 22.5293 128.817 22.5293 123.906 22.6342C123.906 23.0712 123.906 23.4557 123.906 23.8752C123.906 26.1648 125.444 27.4931 128.59 27.4931C130.908 27.4317 133.152 26.6633 135.022 25.2909L135.371 25.5181ZM131.369 18.6841C131.497 18.1096 131.573 17.5246 131.596 16.9363C131.615 16.5887 131.559 16.2411 131.432 15.917C131.304 15.593 131.109 15.3 130.859 15.058C130.608 14.816 130.309 14.6307 129.981 14.5145C129.653 14.3983 129.303 14.3539 128.957 14.3845C128.441 14.3886 127.932 14.4976 127.46 14.7049C126.989 14.9123 126.564 15.2136 126.213 15.5905C125.345 16.4674 124.74 17.5691 124.465 18.7715L131.369 18.6841Z" fill="white"/>
<path d="M152.552 19.3833C154.72 25.1686 155.069 26.0075 157.009 31.0936L156.73 31.4782L150.263 31.6355L149.948 31.4083C149.284 29.1885 147.309 22.7566 146.347 20.2397C145.211 25.2035 144.914 26.6018 144.058 31.2509L143.778 31.4782L137.504 31.6355L137.311 31.3733L139.671 21.7953L140.72 17.0936C141.891 12.025 143.359 5.03372 143.743 1.97505L144.023 1.71287C146.924 1.34583 147.816 1.20601 150.839 0.664185L151.032 0.926357L149.721 6.1698L146.505 19.6629C148.864 16.9888 150.717 14.7691 153.496 11.2035L153.881 11.0113C156.59 11.0113 157.376 11.0113 160.225 10.8889L160.347 11.2734C159.893 11.7803 157.516 14.1573 157.009 14.7691L152.552 19.3833Z" fill="white"/>
<path d="M179.136 18.6493C177.668 24.9239 177.389 26.3222 176.62 31.286L176.357 31.4782L170.502 31.6355L170.31 31.4083L170.572 29.6605C169.997 30.2254 169.329 30.6866 168.597 31.0238C167.445 31.5753 166.186 31.8677 164.909 31.8802C163.848 31.8975 162.801 31.6293 161.878 31.1035C160.956 30.5777 160.192 29.8137 159.666 28.8915C158.952 27.4852 158.598 25.9239 158.635 24.3471C158.633 22.4854 159.003 20.642 159.724 18.9253C160.444 17.2085 161.5 15.6529 162.829 14.3496C166.482 11.0113 170.747 10.9764 174.155 10.854H180.744L180.989 11.1686L179.136 18.6493ZM173.683 15.241C172.696 15.1451 171.701 15.1982 170.729 15.3983C166.552 16.482 165.311 21.3584 165.311 23.683C165.311 27.0562 167.286 27.5282 168.213 27.5282C169.32 27.5105 170.378 27.066 171.166 26.2872L173.683 15.241Z" fill="white"/>
<path d="M181.514 31.3208L183.558 22.5817L185.149 15.4856C185.848 12.5842 186.512 9.63042 187.089 6.74653C187.596 4.29958 187.753 3.4082 187.98 1.62543L188.295 1.34578L192.542 0.611694L192.734 0.891345L191.651 5.19097L189.903 12.6367C191.59 11.5358 193.552 10.9302 195.566 10.8888C196.532 10.8678 197.492 11.0508 198.382 11.426C199.273 11.8011 200.074 12.36 200.734 13.066C201.394 13.772 201.897 14.6093 202.212 15.5232C202.526 16.4371 202.644 17.407 202.557 18.3695C202.537 21.5684 201.399 24.6595 199.341 27.1086C195.846 31.1111 191.546 31.3732 186.547 31.5655H184.415H181.706L181.514 31.3208ZM186.233 28.4893H186.862C189.425 28.6839 191.986 28.0728 194.185 26.7415C195.449 25.8333 196.487 24.6472 197.221 23.2745C197.954 21.9019 198.362 20.3793 198.415 18.8239C198.497 18.1866 198.436 17.5391 198.237 16.9282C198.038 16.3172 197.706 15.7581 197.264 15.2914C196.823 14.8247 196.283 14.462 195.684 14.2296C195.085 13.9972 194.441 13.9008 193.801 13.9475C192.135 14.0179 190.528 14.5838 189.186 15.573L186.233 28.4893Z" fill="white"/>
<path d="M224.003 19.191C222.657 25.1685 222.377 26.6367 221.608 31.2509L221.329 31.5131L217.693 31.6005L217.501 31.3208L217.763 29.7828C216.189 31.1267 214.169 31.8315 212.1 31.7578C211.111 31.7868 210.126 31.6053 209.212 31.2252C208.297 30.8451 207.474 30.2752 206.797 29.5531C206.119 28.831 205.603 27.9732 205.282 27.0365C204.961 26.0999 204.842 25.1057 204.934 24.1198C205.037 21.0794 206.122 18.1543 208.028 15.7828C211.768 11.553 216.68 11.3083 220.245 11.3083H225.593L225.786 11.623L224.003 19.191ZM221.136 14.2622H219.389C217.243 14.1761 215.123 14.7428 213.306 15.8876C212.061 16.823 211.042 18.0266 210.325 19.4093C209.608 20.792 209.211 22.3183 209.164 23.8751C209.105 24.5052 209.179 25.1407 209.383 25.74C209.586 26.3393 209.914 26.8888 210.345 27.3525C210.776 27.8162 211.299 28.1836 211.882 28.4308C212.465 28.6779 213.093 28.7991 213.726 28.7865C214.911 28.7892 216.076 28.4754 217.099 27.8776C217.548 27.5774 217.975 27.2444 218.375 26.8814L221.136 14.2622Z" fill="white"/>
<path d="M243.229 31.2859L242.932 31.5131L238.964 31.6354L238.824 31.3733L240.45 24.382L241.411 20.0125C241.637 19.1082 241.766 18.1825 241.796 17.2509C241.796 14.9263 240.362 14.1573 238.545 14.1573C236.615 14.2205 234.764 14.9421 233.301 16.2022C231.868 22.7216 231.396 24.784 230.155 31.2509L229.893 31.4781L225.943 31.6005L225.751 31.3383L227.324 24.6616L227.953 21.7603C228.749 18.5223 229.368 15.2432 229.806 11.9375L230.085 11.6754C231.833 11.4307 232.34 11.3608 234.193 10.9762L234.385 11.2384L233.843 13.2309C235.748 11.7291 238.094 10.894 240.52 10.8539C241.22 10.7786 241.928 10.8544 242.597 11.076C243.266 11.2976 243.879 11.6599 244.396 12.1386C244.913 12.6172 245.321 13.2011 245.593 13.8508C245.865 14.5005 245.994 15.201 245.973 15.9051C245.782 18.4675 245.355 21.0068 244.697 23.4906L244.12 26.1298L243.229 31.2859Z" fill="white"/>
<path d="M257.683 19.7328L263.696 31.181L263.469 31.4782L259.169 31.6005L258.854 31.3733C257.841 28.9613 257.578 28.4195 256.18 25.588L253.471 20.0475C252.335 24.9763 252.108 26.1299 251.129 31.2509L250.867 31.4782L246.952 31.5656L246.794 31.3383L249.119 21.3583L250.36 16.1149C250.937 13.5805 251.479 11.0637 252.108 8.58179C252.842 5.08616 253.034 3.7753 253.384 1.59053L253.646 1.36331L257.876 0.664185L258.103 0.926357L256.914 5.66294L253.646 19.5056C254.572 18.6842 255.131 18.1948 256.407 16.9538C257.683 15.7129 261.057 12.2172 261.651 11.5531L262.088 11.3259H266.545L266.667 11.6754L264.535 13.4232C263.905 13.9301 263.521 14.3146 262.787 14.9788L257.683 19.7328Z" fill="white"/>
<path fill-rule="evenodd" clip-rule="evenodd" d="M220.507 42.7689L219.144 48.764C218.746 49.142 218.259 49.4126 217.728 49.5505C217.454 49.6192 217.172 49.6545 216.889 49.6553C216.435 49.6553 214.827 49.498 214.827 47.2783C214.857 46.1618 215.243 45.0841 215.928 44.2022C216.45 43.6588 217.091 43.2448 217.801 42.9929C218.511 42.7411 219.27 42.6584 220.018 42.7515L220.507 42.7689ZM222.692 41.3008H220.123C217.973 41.3008 215.369 41.3882 213.708 44.2546C213.135 45.2493 212.828 46.375 212.817 47.523C212.78 47.9781 212.839 48.436 212.991 48.8664C213.144 49.2969 213.386 49.6902 213.701 50.0204C214.016 50.3507 214.398 50.6104 214.821 50.7824C215.244 50.9545 215.699 51.035 216.155 51.0186C217.077 51.0354 217.982 50.7801 218.759 50.2846L218.515 51.2459C218.253 52.2945 217.798 54.1997 215.491 54.1997C214.944 54.2209 214.4 54.1133 213.902 53.8856C213.404 53.6579 212.966 53.3165 212.625 52.8888H212.485L211.716 54.0598V54.2171C212.03 54.5476 212.396 54.825 212.799 55.0386C213.669 55.4214 214.611 55.6122 215.561 55.5979C216.229 55.6402 216.899 55.5371 217.523 55.2958C218.148 55.0544 218.713 54.6804 219.179 54.1997C220.034 52.9309 220.568 51.4734 220.734 49.9525L221.259 47.488C221.906 44.5517 222.08 43.8176 222.657 41.4756L222.692 41.3008Z" fill="white"/>
<path fill-rule="evenodd" clip-rule="evenodd" d="M225.593 49.0787L225.995 47.3308C226.121 46.0771 226.56 44.875 227.271 43.8352C227.428 43.6467 227.623 43.4933 227.842 43.3849C228.062 43.2765 228.302 43.2156 228.547 43.206C228.822 43.2122 229.089 43.2971 229.316 43.4507H229.509L230.225 41.7029V41.5456C229.96 41.4076 229.667 41.33 229.369 41.3184C228.99 41.3594 228.624 41.4804 228.296 41.6732C227.968 41.866 227.684 42.1263 227.464 42.437C227.285 42.6646 227.121 42.904 226.974 43.1536L227.376 41.5456L227.289 41.4057C226.638 41.5544 225.978 41.6596 225.314 41.7204L225.174 41.8427C224.95 43.4485 224.64 45.0412 224.248 46.6142L223.846 48.3621L223.164 51.0537L223.251 51.1586H225.174L225.331 51.0187L225.593 49.0787Z" fill="white"/>
<path fill-rule="evenodd" clip-rule="evenodd" d="M236.954 46.2646C236.622 47.7677 235.888 49.7602 233.93 49.7602C233.661 49.7651 233.394 49.7118 233.148 49.604C232.901 49.4962 232.681 49.3365 232.502 49.1357C232.322 48.9349 232.189 48.6978 232.109 48.4406C232.03 48.1834 232.008 47.9122 232.043 47.6454C232.043 46.9637 232.41 42.4019 235.311 42.4019C235.993 42.4019 237.181 42.7165 237.181 44.5692C237.183 45.142 237.106 45.7123 236.954 46.2646ZM238.877 46.8414C239.055 46.2039 239.149 45.5458 239.156 44.8838C239.192 44.3751 239.116 43.8647 238.934 43.3884C238.752 42.9121 238.467 42.4815 238.101 42.1268C237.735 41.7721 237.295 41.5018 236.813 41.3349C236.331 41.1681 235.819 41.1087 235.311 41.161C231.291 41.161 230.068 45.146 230.068 47.3832C230.002 47.8962 230.054 48.4176 230.222 48.907C230.389 49.3965 230.667 49.8408 231.034 50.2058C231.4 50.5707 231.846 50.8464 232.336 51.0116C232.826 51.1768 233.348 51.2271 233.861 51.1585C235.075 51.1593 236.25 50.724 237.171 49.9316C238.091 49.1393 238.697 48.0426 238.877 46.8414Z" fill="white"/>
<path fill-rule="evenodd" clip-rule="evenodd" d="M248.734 48.0125L249.171 46.0025L250.238 41.4757V41.3534H248.367L248.228 41.4757C247.983 42.8215 247.913 43.2235 247.459 45.3209L246.759 48.467C246.079 49.1186 245.184 49.498 244.243 49.5331C244.038 49.5462 243.833 49.5153 243.641 49.4423C243.45 49.3694 243.276 49.2563 243.132 49.1105C242.988 48.9647 242.877 48.7897 242.806 48.5973C242.735 48.4048 242.707 48.1995 242.722 47.9951C242.798 47.1639 242.938 46.34 243.141 45.5306C243.229 45.1811 244.015 42.035 244.155 41.3883L244.068 41.2834H242.215L242.093 41.4058C241.918 42.402 241.866 42.6467 241.568 43.8877L241.149 45.6355C240.899 46.543 240.747 47.4746 240.695 48.4145C240.682 48.765 240.746 49.114 240.88 49.4378C241.015 49.7616 241.218 50.0527 241.475 50.2914C241.731 50.5301 242.037 50.7107 242.37 50.8211C242.702 50.9316 243.055 50.9692 243.404 50.9314C244.518 50.8967 245.588 50.4906 246.445 49.7778L246.218 50.6867L246.305 50.809H248.053L248.175 50.6867L248.734 48.0125Z" fill="white"/>
<path fill-rule="evenodd" clip-rule="evenodd" d="M254.38 43.643C254.954 43.0771 255.723 42.752 256.53 42.7341C256.83 42.7259 257.129 42.7835 257.405 42.9029C257.681 43.0224 257.928 43.2008 258.128 43.4256C258.328 43.6504 258.476 43.9162 258.562 44.2043C258.648 44.4925 258.671 44.796 258.627 45.0937C258.617 45.7166 258.48 46.331 258.224 46.899C257.968 47.4671 257.599 47.977 257.139 48.3975C256.679 48.818 256.138 49.1402 255.55 49.3445C254.961 49.5488 254.337 49.6308 253.716 49.5856C253.436 49.5856 253.226 49.5856 252.964 49.5856L254.38 43.643ZM254.869 41.3533V41.2135L252.894 41.5281L252.772 41.633C252.615 42.5593 252.527 43.206 252.195 44.849C251.863 46.4919 251.496 48.0125 251.146 49.603L250.779 51.0537L249.766 55.2485L249.853 55.3708H251.793L251.915 55.266C252.335 53.0288 252.422 52.6268 252.807 50.9489H253.716C254.774 51.0192 255.834 50.8408 256.812 50.4281C257.789 50.0153 258.656 49.3796 259.344 48.5718C260.133 47.5035 260.561 46.2119 260.567 44.8839C260.611 44.4211 260.558 43.9542 260.412 43.5127C260.267 43.0712 260.031 42.6645 259.721 42.3182C259.411 41.9719 259.033 41.6935 258.61 41.5004C258.187 41.3073 257.729 41.2036 257.264 41.196C256.31 41.2134 255.387 41.5315 254.625 42.1049L254.869 41.3533Z" fill="white"/>
<path fill-rule="evenodd" clip-rule="evenodd" d="M185.079 46.2646C184.967 47.1641 184.624 48.0192 184.083 48.7465C183.918 48.9698 183.705 49.1532 183.46 49.2833C183.215 49.4134 182.944 49.4868 182.667 49.498C182.371 49.5177 182.078 49.4393 181.831 49.275C181.585 49.1107 181.399 48.8696 181.304 48.5892C181.203 48.3156 181.161 48.0237 181.181 47.7327C181.22 46.3137 181.611 44.9264 182.317 43.6953C182.504 43.4502 182.744 43.2517 183.02 43.1152C183.296 42.9788 183.6 42.9081 183.908 42.9088C185.044 42.9088 185.271 43.905 185.271 44.6566C185.256 45.1973 185.191 45.7354 185.079 46.2646ZM188.243 46.9987C188.401 46.37 188.483 45.7244 188.487 45.0761C188.533 44.4976 188.448 43.9162 188.24 43.3748C188.031 42.8333 187.703 42.3456 187.281 41.9475C186.331 41.1906 185.139 40.8054 183.925 40.8638C178.909 40.8638 177.965 45.513 177.965 47.2783C177.916 47.88 178.004 48.485 178.222 49.048C178.44 49.611 178.782 50.1174 179.224 50.5292C180.165 51.2296 181.32 51.5817 182.492 51.5255C183.872 51.6026 185.233 51.1738 186.32 50.3195C187.317 49.4246 187.992 48.2272 188.243 46.9113V46.9987Z" fill="white"/>
<path fill-rule="evenodd" clip-rule="evenodd" d="M194.954 48.7815L194.832 48.6767C194.484 48.8266 194.109 48.904 193.731 48.9039C193.311 48.9039 192.822 48.7291 192.822 48.1174C192.898 47.526 193.021 46.9416 193.189 46.3696L193.993 42.9963H195.741L195.898 42.8739C196.16 41.9651 196.23 41.7553 196.492 40.9339V40.8115H194.535L194.954 39.0637L195.374 37.4732L195.251 37.3508C193.923 37.7353 193.504 37.8402 192.105 38.1723L191.965 38.2947L191.406 40.794H190.13H189.99L189.379 42.7691L189.501 42.9089H190.847L190.218 45.5481C189.893 46.637 189.677 47.7551 189.571 48.8864C189.571 50.6342 190.829 51.1411 192.49 51.1411C193.078 51.1351 193.664 51.0648 194.238 50.9314L194.395 50.7741L194.954 48.7815Z" fill="white"/>
<path fill-rule="evenodd" clip-rule="evenodd" d="M200.74 43.643C201.132 43.3057 201.622 43.1035 202.138 43.0662C202.522 43.0662 203.553 43.2759 203.553 44.814C203.563 45.4663 203.437 46.1136 203.184 46.7151C202.932 47.3166 202.558 47.8595 202.085 48.3096C201.487 48.7984 200.743 49.0749 199.97 49.0961H199.516L200.74 43.643ZM201.299 40.8814L201.194 40.7416L197.891 41.2834L197.751 41.4232C197.631 42.5231 197.445 43.6147 197.191 44.6916C196.842 46.4395 196.457 48.1873 196.073 49.9351L195.723 51.4032L194.605 55.9301L194.71 56.0699C195.426 56.0699 196.003 56.0699 196.65 56.0699H197.96L198.1 55.9825L199.027 51.3683C200.195 51.5329 201.386 51.4087 202.495 51.0065C203.604 50.6043 204.598 49.9364 205.389 49.0612C206.338 47.8478 206.861 46.3547 206.874 44.814C206.874 42.367 205.581 40.9164 203.658 40.9164C202.718 40.9326 201.809 41.2582 201.072 41.8427L201.299 40.8814Z" fill="white"/>
</g>
<defs>
<clipPath id="clip0_99_1049">
<rect width="265.668" height="56" fill="white" transform="translate(0.946716)"/>
</clipPath>
</defs>
</svg>
