<svg width="281" height="56" viewBox="0 0 281 56" fill="none" xmlns="http://www.w3.org/2000/svg">
<path d="M39.3946 44.4144C37.2383 48.6121 32.691 51.3597 28.0723 51.3597C27.7224 51.3597 27.3705 51.3437 27.0206 51.3114C22.6159 50.9063 19.1916 49.1045 16.5474 45.7997C14.2162 43.0475 13.0909 39.4643 13.2911 35.4418C13.5764 29.7413 16.4024 25.6244 19.3941 21.2657C20.6276 19.4661 21.9048 17.6067 23.0072 15.6068C24.3442 13.1813 25.2026 10.5095 25.6306 7.44186L25.6743 7.12891L25.8838 7.36362C31.6599 13.8901 30.4425 18.7389 28.8134 20.5754C28.7327 20.6674 28.6315 20.8354 28.5257 21.0172C28.3739 21.2726 28.2035 21.5603 28.0078 21.7743C28.0147 21.7789 28.024 21.7835 28.0309 21.7881C29.6418 20.7733 30.7004 19.4753 31.2689 17.8161L31.3493 17.5837L31.515 17.7655C33.3329 19.7722 33.6851 22.1241 33.409 23.6522C33.1375 25.1503 32.4218 26.1306 31.1584 26.7428C25.3361 30.0314 24.3971 32.8689 24.2475 35.2093C24.7354 38.4126 26.5834 40.2375 29.743 40.6035C32.1318 40.5483 33.8118 39.7682 34.578 38.3504C35.1141 37.3563 35.1786 36.4773 34.7828 35.497C34.1246 34.7857 33.4573 34.4384 32.7439 34.4384H32.7393C31.7521 34.4384 30.6819 35.0989 29.3772 36.514L29.2711 36.6268L29.1653 36.514C28.3828 35.6902 28.5971 34.6891 28.7718 33.8861C28.8316 33.6007 28.8892 33.3315 28.8984 33.099C28.9308 32.3258 29.5082 31.1406 30.5507 30.372C30.8314 30.1441 31.1859 29.9877 31.6784 29.7714C32.1156 29.578 32.6589 29.3409 33.3537 28.9589C34.2328 28.478 35.7332 27.3066 35.9197 24.8811L35.9426 24.5888L36.1612 24.7844C39.1092 27.424 38.488 29.8472 37.5743 31.6813C40.895 35.5612 41.5577 40.1961 39.3946 44.4144Z" fill="#FEFEFE"/>
<path d="M66.6966 20.3922V39.4587C66.6966 41.6203 66.626 43.1416 66.4852 44.0227C66.3442 44.892 65.927 45.7908 65.2339 46.7189C64.5409 47.6352 63.6246 48.3342 62.4851 48.8158C61.3574 49.2856 60.0239 49.5207 58.4849 49.5207C56.7815 49.5207 55.2778 49.2386 53.9738 48.6748C52.6699 48.1109 51.6948 47.3768 51.0487 46.472C50.4024 45.5676 50.0207 44.6161 49.9033 43.6173C49.7859 42.607 49.7271 40.4926 49.7271 37.2736V20.3922H57.1458V41.7847C57.1458 43.0301 57.2103 43.8287 57.3395 44.1812C57.4805 44.522 57.7567 44.6924 58.1677 44.6924C58.6378 44.6924 58.9373 44.5043 59.0665 44.1285C59.2075 43.7406 59.2779 42.8361 59.2779 41.4148V20.3922H66.6966ZM81.6134 20.3922V26.1016L76.0805 43.2122H81.6134V48.9214H67.9392V44.7805L73.6486 26.1016H68.6088V20.3922H81.6134ZM83.1909 20.3922H90.5922C92.9298 20.3922 94.6979 20.5743 95.8963 20.9385C97.1062 21.3027 98.0813 22.0428 98.8214 23.1588C99.5614 24.2631 99.9316 26.0487 99.9316 28.5158C99.9316 30.184 99.6673 31.3469 99.1386 32.0048C98.6215 32.6626 97.5937 33.1679 96.0547 33.5204C97.7699 33.908 98.9328 34.5541 99.5437 35.4585C100.155 36.3514 100.46 37.726 100.46 39.582V42.2253C100.46 44.1519 100.237 45.5794 99.7906 46.5072C99.3559 47.4353 98.657 48.0698 97.6936 48.4105C96.7303 48.7511 94.7567 48.9214 91.7728 48.9214H83.1909V20.3922ZM90.6097 25.2734V31.6171C90.9269 31.6053 91.1735 31.5994 91.3497 31.5994C92.0782 31.5994 92.5422 31.4232 92.742 31.0707C92.9416 30.7067 93.0415 29.6787 93.0415 27.9871C93.0415 27.0942 92.9593 26.4716 92.7947 26.1191C92.6303 25.7551 92.413 25.5259 92.1427 25.432C91.8843 25.338 91.3734 25.2851 90.6097 25.2734ZM90.6097 36.0578V44.0404C91.6552 44.0049 92.3189 43.8405 92.601 43.5469C92.8946 43.2533 93.0415 42.5307 93.0415 41.3794V38.7186C93.0415 37.4969 92.9123 36.7568 92.6539 36.4984C92.3952 36.24 91.714 36.093 90.6097 36.0578ZM102.778 20.3922H115.148V26.1016H110.196V31.5113H114.831V36.9389H110.196V43.2122H115.641V48.9214H102.778V20.3922ZM135.105 20.3922L130.858 33.2735L135.51 48.9214H127.845L124.849 36.6921V48.9214H117.43V20.3922H124.849V31.4761L128.144 20.3922H135.105ZM153.017 20.3922V48.9214H146.515L142.656 35.952V48.9214H136.453V20.3922H142.656L146.815 33.2383V20.3922H153.017ZM155.652 20.3922H168.022V26.1016H163.071V31.5113H167.705V36.9389H163.071V43.2122H168.516V48.9214H155.652V20.3922ZM170.305 20.3922H182.869V26.1016H177.724V31.5113H182.305V36.9389H177.724V48.9214H170.305V20.3922ZM199.266 20.3922V26.1016H194.861V48.9214H187.442V26.1016H183.054V20.3922H199.266ZM200.597 20.3922H212.967V26.1016H208.016V31.5113H212.65V36.9389H208.016V43.2122H213.461V48.9214H200.597V20.3922ZM232.272 30.8945H224.853V28.3044C224.853 26.6714 224.783 25.6493 224.642 25.2381C224.501 24.827 224.166 24.6214 223.637 24.6214C223.179 24.6214 222.868 24.7976 222.703 25.15C222.539 25.5025 222.457 26.4071 222.457 27.8638V41.5556C222.457 42.8361 222.539 43.682 222.703 44.0931C222.868 44.4925 223.197 44.6924 223.69 44.6924C224.231 44.6924 224.595 44.4632 224.783 44.0049C224.982 43.5469 225.082 42.654 225.082 41.3267V37.9433H223.584V33.6085H232.272V48.9214H227.602L226.915 46.8774C226.41 47.7585 225.77 48.4223 224.994 48.8687C224.231 49.3034 223.326 49.5207 222.281 49.5207C221.035 49.5207 219.866 49.2212 218.774 48.6219C217.693 48.011 216.871 47.2591 216.307 46.3665C215.743 45.4735 215.391 44.5395 215.249 43.5647C215.109 42.5777 215.038 41.1035 215.038 39.1414V30.6656C215.038 27.9401 215.185 25.9606 215.479 24.7271C215.772 23.4936 216.612 22.3658 217.999 21.3438C219.397 20.31 221.2 19.7931 223.408 19.7931C225.582 19.7931 227.385 20.2395 228.818 21.1323C230.251 22.0252 231.185 23.0883 231.62 24.3218C232.055 25.5436 232.272 27.3234 232.272 29.6612V30.8945ZM247.612 20.3922L251.859 48.9214H244.264L243.894 43.7935H241.233L240.792 48.9214H233.109L236.88 20.3922H247.612ZM243.682 38.7363C243.306 35.5055 242.93 31.5172 242.555 26.7713C241.803 32.2221 241.333 36.2104 241.145 38.7363H243.682ZM266.089 20.3922V26.1016L260.556 43.2122H266.089V48.9214H252.414V44.7805L258.123 26.1016H253.084V20.3922H266.089Z" fill="white"/>
</svg>
