<svg width="379" height="56" viewBox="0 0 379 56" fill="none" xmlns="http://www.w3.org/2000/svg">
<g clip-path="url(#clip0_99_1077)">
<path fill-rule="evenodd" clip-rule="evenodd" d="M346.729 14.7896L358.062 33.0946L369.388 14.7896L369.769 14.1736H378.824V41.9104H371.92V23.604L360.473 41.321L360.091 41.9104H356.03L355.65 41.321L344.244 23.66V41.9104H337.3V14.1736H346.344L346.729 14.7896ZM316.728 41.9104H316.69C314.1 41.9104 311.891 41.8231 310.063 41.6486C309.484 41.5963 308.907 41.5287 308.332 41.4456C307.384 41.3178 306.447 41.1118 305.533 40.8296H305.517C305.184 40.7218 304.856 40.5952 304.537 40.4502C304.231 40.3116 303.934 40.1535 303.648 39.977C302.189 39.0858 301.12 37.6754 300.658 36.029V36.0108C300.585 35.7658 300.525 35.5166 300.476 35.2646C300.421 34.9846 300.375 34.692 300.336 34.4064C300.092 32.1896 299.988 29.9597 300.022 27.7298C300.022 25.6867 300.069 23.9811 300.162 22.6128C300.207 21.541 300.361 20.4766 300.623 19.4362V19.4264C300.722 19.1034 300.843 18.7873 300.984 18.48C301.119 18.1775 301.275 17.8846 301.45 17.6036C302.406 16.1388 303.856 15.0662 305.537 14.581C307.027 14.1393 308.56 13.8577 310.111 13.741C311.977 13.5599 314.185 13.4694 316.735 13.4694C319.33 13.4694 321.542 13.5562 323.371 13.7298C324.909 13.8427 326.431 14.1201 327.91 14.5572C328.24 14.6649 328.564 14.7916 328.879 14.9366C329.187 15.076 329.485 15.2354 329.772 15.414C331.235 16.3166 332.309 17.7323 332.784 19.3844C333.06 20.4457 333.227 21.5327 333.28 22.6282C333.381 23.9983 333.432 25.6933 333.432 27.713C333.432 29.7327 333.385 31.4267 333.292 32.795C333.246 33.8684 333.091 34.9343 332.827 35.9758C332.505 37.1193 331.894 38.161 331.055 39.0012C330.18 39.8443 329.118 40.468 327.956 40.8212H327.941C327.604 40.9295 327.244 41.0275 326.862 41.1152C326.479 41.2029 326.069 41.2832 325.631 41.356C322.682 41.7691 319.705 41.9517 316.727 41.902L316.728 41.9104ZM316.728 35.3206C318.868 35.3473 321.008 35.2539 323.138 35.0406C323.979 35.0178 324.806 34.823 325.569 34.468C325.922 33.9494 326.129 33.3454 326.169 32.7194C326.413 31.0652 326.52 29.3934 326.488 27.7214C326.519 26.0401 326.411 24.3591 326.167 22.6954C326.129 22.0683 325.927 21.462 325.582 20.937C324.818 20.5892 323.991 20.3987 323.152 20.377C321.016 20.1635 318.871 20.0701 316.726 20.097C314.579 20.0696 312.432 20.1631 310.295 20.377C309.457 20.3986 308.632 20.592 307.872 20.9454C307.838 20.9793 307.809 21.0175 307.785 21.0588C307.708 21.1923 307.645 21.3329 307.596 21.4788C307.074 23.5176 306.863 25.6237 306.97 27.7256C306.938 29.393 307.046 31.0601 307.291 32.7096C307.331 33.3384 307.538 33.945 307.892 34.4666C307.952 34.5105 308.018 34.5458 308.087 34.5716C308.286 34.6506 308.49 34.7147 308.698 34.7634C311.347 35.2318 314.037 35.4195 316.726 35.3234L316.728 35.3206ZM272.738 27.72C272.738 31.6932 273.03 33.9425 273.614 34.468C273.668 34.5116 273.728 34.5474 273.792 34.5744C273.959 34.6495 274.132 34.7113 274.31 34.7592C276.59 35.2241 278.917 35.4121 281.243 35.3192C283.47 35.3192 285.225 35.273 286.499 35.1792C287.214 35.1646 287.924 35.0659 288.615 34.8852C288.672 34.85 288.725 34.8092 288.774 34.7634C288.848 34.6951 288.913 34.6185 288.969 34.5352C289.513 33.4532 289.745 32.2416 289.641 31.0352V29.7444H296.585V31.0478C296.632 32.9297 296.396 34.8081 295.885 36.6198C295.802 36.8802 295.716 37.121 295.626 37.338C295.212 38.4704 294.447 39.4413 293.444 40.11H293.435C293.104 40.3143 292.755 40.4882 292.392 40.6294C291.989 40.7886 291.576 40.9232 291.156 41.0326C287.898 41.7159 284.57 42.0083 281.243 41.9034C278.649 41.946 276.057 41.7501 273.499 41.3182C271.758 41.0875 270.109 40.4018 268.718 39.3302C267.526 38.1112 266.734 36.5584 266.446 34.8782C265.959 32.5219 265.738 30.1185 265.786 27.713C265.739 25.3003 265.958 22.8897 266.442 20.5254C266.724 18.8401 267.508 17.279 268.69 16.0454C270.078 14.9613 271.731 14.2686 273.477 14.0392C276.042 13.6048 278.641 13.4089 281.243 13.454H281.271C283.791 13.4226 286.31 13.5583 288.812 13.86C289.19 13.9132 289.512 13.9608 289.759 14C291.059 14.1756 292.315 14.5925 293.462 15.2292L293.491 15.2446C294.068 15.6211 294.562 16.1119 294.942 16.6866C295.354 17.3137 295.675 17.9969 295.894 18.7152C296.406 20.5364 296.641 22.424 296.594 24.3152V25.6074H289.649V24.3376C289.649 22.1564 289.396 20.9384 288.889 20.6836C288.141 20.4282 287.359 20.2866 286.57 20.2636C285.275 20.1469 283.502 20.0891 281.249 20.09C276.77 20.09 274.222 20.37 273.608 20.93C273.276 21.4659 273.083 22.0768 273.048 22.7066C272.817 24.3701 272.715 26.0491 272.745 27.7284L272.738 27.72ZM236.951 14.1736H262.323V20.7634H242.604V24.57H261.644V31.1598H242.604V35.3178H262.319V41.9076H235.663V14.175H236.947L236.951 14.1736ZM208.221 14.1736H213.841V35.3136H232.562V41.8936H206.942V14.1736H208.226H208.221ZM177.864 14.1736H203.236V20.7634H183.514V24.57H202.554V31.1598H183.524V35.3178H203.236V41.9076H176.58V14.175L177.864 14.1736ZM145.87 14.1736H173.381V20.7634H162.471V41.9034H155.524V20.7634H144.583V14.1736H145.864M85.6065 32.7936C85.5806 33.335 85.663 33.8762 85.8487 34.3854C85.9208 34.5771 86.0636 34.7339 86.2477 34.8236C87.0231 35.0408 87.8227 35.1598 88.6277 35.1778C89.9493 35.2711 91.7348 35.3178 93.9841 35.3178H94.0415C96.2451 35.3178 98.0324 35.2674 99.4035 35.1666C99.6051 35.1526 99.8067 35.1358 100.008 35.119C100.603 35.0896 101.191 34.9881 101.761 34.8166C101.937 34.7229 102.072 34.5666 102.139 34.3784C102.325 33.8668 102.408 33.3234 102.383 32.7796V13.8166H109.324V32.8062C109.365 34.3502 109.177 35.8917 108.764 37.38C108.69 37.611 108.624 37.807 108.553 37.968C108.214 38.8918 107.568 39.6716 106.724 40.1772C105.24 40.9371 103.618 41.3908 101.954 41.5114C99.3076 41.8052 96.6455 41.937 93.9827 41.9062H93.9449C91.3276 41.9336 88.7107 41.8238 86.1049 41.5772C85.4861 41.5119 84.8701 41.4237 84.2569 41.3126C83.3142 41.1741 82.4006 40.8823 81.5521 40.4488C80.4567 39.7668 79.6523 38.7036 79.2939 37.464C78.8337 35.9508 78.621 34.3732 78.6639 32.7922V13.8166H85.6093V32.7908L85.6065 32.7936ZM112.996 19.4754V14.175H141.404V19.88L140.94 20.2692L123.044 35.3206H141.404V41.9118H112.179V36.2026L112.646 35.812L130.758 20.7662H113.002V19.474M0.823914 34.3C2.18508 33.9003 3.3802 33.0705 4.23035 31.9348C5.0805 30.7991 5.53994 29.4186 5.53994 28C5.53994 26.5814 5.0805 25.2009 4.23035 24.0652C3.3802 22.9295 2.18508 22.0997 0.823914 21.7C1.7962 22.4375 2.58462 23.39 3.12741 24.483C3.6702 25.5759 3.95264 26.7797 3.95264 28C3.95264 29.2203 3.6702 30.4241 3.12741 31.5171C2.58462 32.61 1.7962 33.5625 0.823914 34.3ZM3.14651 37.6404C4.46301 37.6406 5.76562 37.3712 6.97408 36.8489C8.18254 36.3266 9.27127 35.5624 10.1732 34.6034C11.0752 33.6444 11.7712 32.5109 12.2185 31.2727C12.6658 30.0346 12.8549 28.7179 12.7741 27.4039C12.6933 26.0899 12.3444 24.8063 11.7487 23.6323C11.1531 22.4582 10.3234 21.4185 9.31073 20.5772C8.29809 19.736 7.12393 19.1109 5.86059 18.7406C4.59724 18.3703 3.27148 18.2626 1.96492 18.424C4.2983 18.7151 6.44497 19.8485 8.00139 21.6112C9.55781 23.3739 10.4168 25.6443 10.4168 27.9958C10.4168 30.3473 9.55781 32.6178 8.00139 34.3804C6.44497 36.1431 4.2983 37.2765 1.96492 37.5676C2.35693 37.616 2.75153 37.6403 3.14651 37.6404ZM6.52333 43.2236C10.562 43.2236 14.4352 41.6193 17.291 38.7635C20.1468 35.9077 21.7511 32.0345 21.7511 27.9958C21.7511 23.9571 20.1468 20.0839 17.291 17.2281C14.4352 14.3724 10.562 12.768 6.52333 12.768C5.89987 12.7676 5.27701 12.8069 4.65853 12.8856C8.34063 13.3473 11.7274 15.1374 14.1828 17.9199C16.6382 20.7023 17.9932 24.2856 17.9932 27.9965C17.9932 31.7074 16.6382 35.2907 14.1828 38.0731C11.7274 40.8556 8.34063 42.6458 4.65853 43.1074C5.27716 43.1842 5.89996 43.2239 6.52333 43.2236ZM28.1239 56C31.939 55.9891 35.7117 55.1987 39.2103 53.6773C42.7089 52.1559 45.8597 49.9355 48.4692 47.1525C51.0788 44.3695 53.0922 41.0826 54.3857 37.4934C55.6792 33.9043 56.2256 30.0887 55.9913 26.2808C55.757 22.4729 54.747 18.753 53.0233 15.3495C51.2996 11.946 48.8986 8.93061 45.9675 6.48847C43.0365 4.04634 39.6373 2.22895 35.9786 1.14785C32.3198 0.0667498 28.4788 -0.255249 24.6911 0.201611C31.4646 1.04967 37.6952 4.342 42.2124 9.46002C46.7296 14.578 49.2224 21.1695 49.2224 27.9958C49.2224 34.8222 46.7296 41.4136 42.2124 46.5316C37.6952 51.6496 31.4646 54.9419 24.6911 55.79C25.8301 55.9291 26.9765 55.9993 28.1239 56ZM11.3981 48.4694C14.1934 48.4706 16.9592 47.8995 19.5253 46.7911C22.0914 45.6827 24.4034 44.0606 26.3188 42.0247C28.2341 39.9888 29.7123 37.5823 30.6622 34.9534C31.6121 32.3245 32.0136 29.529 31.842 26.739C31.6704 23.949 30.9294 21.2238 29.6645 18.7311C28.3996 16.2384 26.6376 14.0312 24.4872 12.2454C22.3368 10.4595 19.8435 9.13295 17.1609 8.34738C14.4784 7.5618 11.6633 7.33387 8.88929 7.67761C13.8414 8.29679 18.397 10.7032 21.6998 14.4447C25.0026 18.1862 26.8253 23.0051 26.8253 27.9958C26.8253 32.9865 25.0026 37.8054 21.6998 41.5469C18.397 45.2884 13.8414 47.6948 8.88929 48.314C9.72159 48.4172 10.5595 48.4691 11.3981 48.4694ZM18.2455 53.0222C24.8829 53.0222 31.2485 50.3855 35.9418 45.6921C40.6352 40.9988 43.2719 34.6332 43.2719 27.9958C43.2719 21.3584 40.6352 14.9928 35.9418 10.2995C31.2485 5.60611 24.8829 2.96941 18.2455 2.96941C17.2201 2.97064 16.1958 3.03422 15.1781 3.15981C21.2308 3.91761 26.7985 6.85961 30.8351 11.433C34.8716 16.0065 37.0992 21.8965 37.0992 27.9965C37.0992 34.0965 34.8716 39.9866 30.8351 44.56C26.7985 49.1334 21.2308 52.0754 15.1781 52.8332C16.1958 52.9585 17.2202 53.0217 18.2455 53.0222Z" fill="white"/>
</g>
<defs>
<clipPath id="clip0_99_1077">
<rect width="378" height="56" fill="white" transform="translate(0.823914)"/>
</clipPath>
</defs>
</svg>
