<svg width="766" height="484" viewBox="0 0 766 484" fill="none" xmlns="http://www.w3.org/2000/svg">
<g opacity="0.4" filter="url(#filter0_d_2_873)">
<path d="M-307 346.217C-231.054 422.499 -128.933 528.302 -45.6165 601.002C-1.96115 639.096 48.7133 683.582 108.676 691.852C131.1 694.945 145.863 698.491 139.636 672.693C115.728 573.647 71.4646 477.169 24.551 387.328C-14.3536 312.824 -57.2612 240.728 -104.745 171.369C-119.967 149.135 -136.353 126.107 -154.611 106.023C-168.856 90.3542 -150.472 122.557 -150.17 123.153C-103.969 214.188 -43.568 310.993 39.1429 373.37C49.898 381.482 85.2916 408.066 96.1143 383.014C107.532 356.584 94.3979 312.638 89.1356 287.089C73.2013 209.725 50.8279 132.352 20.8714 59.2026C20.6429 58.6447 8.33552 35.698 15.0346 49.3056C27.5595 74.7467 47.2394 98.6091 64.7737 120.361C99.0657 162.903 135.315 204.583 175.418 241.79C206.253 270.4 240.217 296.045 275.403 319.064C292.143 330.015 308.672 339.149 327.934 344.441C330.467 345.137 345.804 350.908 348.489 344.948C355.121 330.227 348.512 297.994 346.586 285.058C336.944 220.319 314.789 159.641 287.838 100.313C285.498 95.1629 283.001 90.0853 280.605 84.9603C279.899 83.4499 273.091 71.4904 279.971 79.6312C308.707 113.635 335.923 147.522 367.522 179.236C466.005 278.079 579.892 363.856 716.202 401.031" stroke="#0F6BF6" stroke-width="90" stroke-linecap="round" shape-rendering="crispEdges"/>
</g>
<defs>
<filter id="filter0_d_2_873" x="-352" y="-0.00976562" width="1117.21" height="743.011" filterUnits="userSpaceOnUse" color-interpolation-filters="sRGB">
<feFlood flood-opacity="0" result="BackgroundImageFix"/>
<feColorMatrix in="SourceAlpha" type="matrix" values="0 0 0 0 0 0 0 0 0 0 0 0 0 0 0 0 0 0 127 0" result="hardAlpha"/>
<feOffset dx="4" dy="4"/>
<feComposite in2="hardAlpha" operator="out"/>
<feColorMatrix type="matrix" values="0 0 0 0 0.0241003 0 0 0 0 0.358566 0 0 0 0 0.8639 0 0 0 1 0"/>
<feBlend mode="normal" in2="BackgroundImageFix" result="effect1_dropShadow_2_873"/>
<feBlend mode="normal" in="SourceGraphic" in2="effect1_dropShadow_2_873" result="shape"/>
</filter>
</defs>
</svg>
