<svg width="48" height="49" viewBox="0 0 48 49" fill="none" xmlns="http://www.w3.org/2000/svg">
<path d="M24.0547 0H23.9453C10.7207 0 0 10.7239 0 23.9524V24.0617C0 37.2903 10.7207 48.0141 23.9453 48.0141H24.0547C37.2793 48.0141 48 37.2903 48 24.0617V23.9524C48 10.7239 37.2793 0 24.0547 0Z" fill="#297FFF"/>
<path d="M31.4274 9.76831H16.5749C12.4716 9.76831 9.13348 13.1074 9.13348 17.2119V30.8038C9.13348 34.9083 12.4716 38.2474 16.5749 38.2474H31.4274C35.5307 38.2474 38.8688 34.9083 38.8688 30.8038V17.2119C38.8688 13.1074 35.5307 9.76831 31.4274 9.76831ZM11.7586 17.2119C11.7586 14.5558 13.9195 12.3942 16.5749 12.3942H31.4274C34.0828 12.3942 36.2437 14.5558 36.2437 17.2119V30.8038C36.2437 33.46 34.0828 35.6216 31.4274 35.6216H16.5749C13.9195 35.6216 11.7586 33.46 11.7586 30.8038V17.2119Z" fill="white"/>
<path d="M24.0013 30.9299C27.817 30.9299 30.9231 27.8246 30.9231 24.0061C30.9231 20.1876 27.8187 17.0823 24.0013 17.0823C20.1839 17.0823 17.0795 20.1876 17.0795 24.0061C17.0795 27.8246 20.1839 30.9299 24.0013 30.9299ZM24.0013 19.7098C26.3708 19.7098 28.298 21.6376 28.298 24.0078C28.298 26.3779 26.3708 28.3057 24.0013 28.3057C21.6318 28.3057 19.7046 26.3779 19.7046 24.0078C19.7046 21.6376 21.6318 19.7098 24.0013 19.7098Z" fill="white"/>
<path d="M31.5636 18.201C32.5911 18.201 33.4286 17.365 33.4286 16.3355C33.4286 15.306 32.5928 14.47 31.5636 14.47C30.5344 14.47 29.6986 15.306 29.6986 16.3355C29.6986 17.365 30.5344 18.201 31.5636 18.201Z" fill="white"/>
</svg>
