<svg width="348" height="113" viewBox="0 0 348 113" fill="none" xmlns="http://www.w3.org/2000/svg">
<mask id="mask0_403_1035" style="mask-type:alpha" maskUnits="userSpaceOnUse" x="0" y="0" width="348" height="113">
<rect width="348" height="113" fill="#fff"/>
</mask>
<g mask="url(#mask0_403_1035)">
<path d="M68.98 16.605L39.16 49.575L68.98 90H49.03L27.925 61.86L16.795 74.25V90H0.835V16.5H16.795V50.31L47.56 16.605H68.98ZM123.706 64.275H76.6655C77.8205 72.15 82.5455 76.035 92.8355 76.035C102.391 76.035 107.116 73.41 108.586 69.525H124.021C122.446 82.23 112.156 90 92.8355 90C72.6755 90 61.2305 79.92 61.2305 60.285C61.2305 41.07 72.9905 30.57 92.8355 30.57C101.131 30.57 107.851 32.67 112.786 36.135V36.03C124.126 43.8 125.176 56.19 124.336 64.275H123.706ZM92.8355 44.535C84.0155 44.535 79.1855 47.79 77.2955 53.775H108.376C107.116 49.365 104.176 44.535 92.8355 44.535ZM171.731 31.2H188.636L157.451 112.47H140.546L149.156 90.105H143.486L120.806 31.2H137.606L154.721 75.51L171.731 31.2ZM231.013 31.2C255.898 31.2 258.523 52.095 258.523 60.705C258.523 68.58 255.793 90.21 231.013 90.21C219.988 90.21 213.268 87.06 209.278 81.915H208.543V112.47H192.583V31.2H208.543V39.81H209.383C213.373 34.665 220.093 31.2 231.013 31.2ZM226.393 76.455C241.618 76.455 243.298 64.905 243.298 60.705C243.298 56.085 241.618 44.955 226.393 44.955C212.533 44.955 209.698 52.725 209.698 60.705C209.698 69.63 212.533 76.455 226.393 76.455ZM279.087 90H263.232V31.515H279.087V90ZM279.087 27.315H263.232V13.035H279.087V27.315ZM347.402 31.095L324.302 60.6L347.402 90H328.502L314.852 72.57L301.202 90H282.407L305.402 60.6L282.407 31.095H301.202L314.852 48.63L328.502 31.095H347.402Z" fill="white"/>
<path d="M181 0C181 0 171.487 10.6857 153.683 10.6857C135.879 10.6857 126 0 126 0V14.2869C126 14.2869 137.738 22.0131 153.493 22.0131C169.248 22.0131 180.986 14.2869 180.986 14.2869V0H181Z" fill="white"/>
</g>
</svg>
