<svg width="25" height="25" viewBox="0 0 25 25" fill="none" xmlns="http://www.w3.org/2000/svg">
<path d="M13.2455 2.14771C14.3705 2.15071 14.9415 2.15671 15.4345 2.17071L15.6285 2.17771C15.8525 2.18571 16.0735 2.19571 16.3405 2.20771C17.4045 2.25771 18.1305 2.42571 18.7675 2.67271C19.4275 2.92671 19.9835 3.2707 20.5395 3.82571C21.0482 4.32544 21.4417 4.93018 21.6925 5.5977C21.9395 6.2347 22.1075 6.9607 22.1575 8.0257C22.1695 8.2917 22.1795 8.51271 22.1875 8.73771L22.1935 8.93171C22.2085 9.42371 22.2145 9.99471 22.2165 11.1197L22.2175 11.8657V13.1757C22.22 13.9051 22.2123 14.6345 22.1945 15.3637L22.1885 15.5577C22.1805 15.7827 22.1705 16.0037 22.1585 16.2697C22.1085 17.3347 21.9385 18.0597 21.6925 18.6977C21.4417 19.3652 21.0482 19.97 20.5395 20.4697C20.0398 20.9784 19.4351 21.3719 18.7675 21.6227C18.1305 21.8697 17.4045 22.0377 16.3405 22.0877L15.6285 22.1177L15.4345 22.1237C14.9415 22.1377 14.3705 22.1447 13.2455 22.1467L12.4995 22.1477H11.1905C10.4608 22.1503 9.73107 22.1426 9.00154 22.1247L8.80754 22.1187C8.57015 22.1097 8.33282 22.0994 8.09554 22.0877C7.03154 22.0377 6.30554 21.8697 5.66754 21.6227C5.00037 21.3718 4.39599 20.9783 3.89654 20.4697C3.38749 19.9701 2.99365 19.3653 2.74255 18.6977C2.49555 18.0607 2.32754 17.3347 2.27754 16.2697L2.24754 15.5577L2.24255 15.3637C2.22411 14.6345 2.21578 13.9051 2.21754 13.1757V11.1197C2.21478 10.3903 2.22211 9.6609 2.23955 8.93171L2.24655 8.73771C2.25455 8.51271 2.26454 8.2917 2.27654 8.0257C2.32654 6.9607 2.49454 6.2357 2.74154 5.5977C2.99324 4.9299 3.38777 4.32514 3.89754 3.82571C4.3967 3.31725 5.00073 2.92378 5.66754 2.67271C6.30554 2.42571 7.03054 2.25771 8.09554 2.20771C8.36154 2.19571 8.58354 2.18571 8.80754 2.17771L9.00154 2.17171C9.73074 2.15394 10.4601 2.14627 11.1895 2.14871L13.2455 2.14771ZM12.2175 7.14771C10.8915 7.14771 9.61969 7.67449 8.68201 8.61217C7.74433 9.54985 7.21754 10.8216 7.21754 12.1477C7.21754 13.4738 7.74433 14.7456 8.68201 15.6832C9.61969 16.6209 10.8915 17.1477 12.2175 17.1477C13.5436 17.1477 14.8154 16.6209 15.7531 15.6832C16.6908 14.7456 17.2175 13.4738 17.2175 12.1477C17.2175 10.8216 16.6908 9.54985 15.7531 8.61217C14.8154 7.67449 13.5436 7.14771 12.2175 7.14771ZM12.2175 9.14771C12.6115 9.14764 13.0016 9.22517 13.3656 9.37588C13.7296 9.52658 14.0604 9.7475 14.339 10.026C14.6176 10.3046 14.8387 10.6352 14.9895 10.9992C15.1403 11.3631 15.218 11.7532 15.218 12.1472C15.2181 12.5412 15.1406 12.9313 14.9899 13.2953C14.8392 13.6593 14.6182 13.99 14.3397 14.2687C14.0612 14.5473 13.7305 14.7683 13.3666 14.9192C13.0026 15.07 12.6125 15.1476 12.2185 15.1477C11.4229 15.1477 10.6598 14.8316 10.0972 14.269C9.53461 13.7064 9.21854 12.9434 9.21854 12.1477C9.21854 11.3521 9.53461 10.589 10.0972 10.0264C10.6598 9.46378 11.4229 9.14771 12.2185 9.14771M17.4685 5.64771C17.137 5.64771 16.8191 5.7794 16.5847 6.01382C16.3502 6.24824 16.2185 6.56618 16.2185 6.89771C16.2185 7.22923 16.3502 7.54717 16.5847 7.78159C16.8191 8.01601 17.137 8.14771 17.4685 8.14771C17.8001 8.14771 18.118 8.01601 18.3524 7.78159C18.5868 7.54717 18.7185 7.22923 18.7185 6.89771C18.7185 6.56618 18.5868 6.24824 18.3524 6.01382C18.118 5.7794 17.8001 5.64771 17.4685 5.64771Z" fill="#C6C6C6"/>
</svg>
