<svg width="48" height="49" viewBox="0 0 48 49" fill="none" xmlns="http://www.w3.org/2000/svg">
<path d="M24.0547 0H23.9453C10.7207 0 0 10.7239 0 23.9524V24.0617C0 37.2903 10.7207 48.0142 23.9453 48.0142H24.0547C37.2793 48.0142 48 37.2903 48 24.0617V23.9524C48 10.7239 37.2793 0 24.0547 0Z" fill="#297FFF"/>
<path d="M9.09108 23.1886C9.15835 23.155 9.22565 23.123 9.29123 23.0927C10.4314 22.5645 11.5867 22.07 12.7403 21.5754C12.8026 21.5754 12.9068 21.5031 12.9657 21.4795C13.0548 21.4408 13.1439 21.4038 13.2331 21.3651C13.4046 21.2911 13.5761 21.2188 13.746 21.1448C14.089 20.9984 14.4304 20.8521 14.7735 20.7057L16.8268 19.8259C18.1957 19.2405 19.5663 18.6535 20.9351 18.0681C22.304 17.4827 23.6746 16.8956 25.0435 16.3102C26.4123 15.7248 27.7829 15.1377 29.1518 14.5523C30.5207 13.967 31.8913 13.3799 33.2601 12.7945C33.5645 12.6633 33.8941 12.4681 34.2204 12.4109C34.4945 12.3622 34.7618 12.268 35.0376 12.2158C35.5606 12.1166 36.1375 12.0762 36.6386 12.2932C36.8118 12.3689 36.9716 12.4749 37.1044 12.6078C37.7401 13.2369 37.651 14.2697 37.5164 15.1546C36.5797 21.3214 35.643 27.4899 34.7047 33.6567C34.5769 34.5029 34.402 35.4314 33.7343 35.9664C33.1693 36.4189 32.3654 36.4693 31.6676 36.2776C30.9697 36.0841 30.3542 35.6787 29.7505 35.28C27.2464 33.6214 24.7408 31.9628 22.2368 30.3042C21.6414 29.9105 20.9789 29.3958 20.9856 28.6809C20.989 28.2502 21.2462 27.8667 21.5086 27.5252C23.6847 24.6857 26.8243 22.7344 29.1602 20.0261C29.4898 19.6443 29.7488 18.9546 29.2964 18.7342C29.0273 18.603 28.7179 18.7813 28.4724 18.9512C25.3848 21.096 22.299 23.2424 19.2114 25.3872C18.2041 26.087 17.148 26.8069 15.9338 26.9785C14.8475 27.1333 13.7544 26.8305 12.7034 26.521C11.8222 26.2619 10.9426 25.9961 10.0665 25.7219C9.60064 25.5773 9.11967 25.4208 8.7598 25.0928C8.39992 24.7648 8.1931 24.213 8.41004 23.7757C8.54625 23.5015 8.81028 23.3282 9.08776 23.1869L9.09108 23.1886Z" fill="white"/>
</svg>
